<svg width="26" height="18" viewBox="0 0 26 18" fill="none" xmlns="http://www.w3.org/2000/svg">
<path d="M20.5833 6.83325H19.695L17.8533 1.76325C17.7009 1.3452 17.4239 0.983957 17.0597 0.728253C16.6955 0.472549 16.2617 0.334684 15.8167 0.333252H14.0833C13.4875 0.333252 13 0.820752 13 1.41659C13 2.01242 13.4875 2.49992 14.0833 2.49992H15.8167L17.3983 6.83325H12.1875L11.7975 5.74992H11.895C12.4908 5.74992 12.9783 5.26242 12.9783 4.66658C12.9783 4.07075 12.4908 3.58325 11.895 3.58325H8.66667C8.07083 3.58325 7.58333 4.07075 7.58333 4.66658C7.58333 5.26242 8.07083 5.74992 8.66667 5.74992H9.47917L11.4508 11.1666H10.725C10.2483 8.75075 8.2225 6.96325 5.6875 6.84409C2.65417 6.69242 0 9.21658 0 12.2499C0 15.2833 2.38333 17.6666 5.41667 17.6666C8.08167 17.6666 10.2375 15.8358 10.725 13.3333H15.275C15.7517 15.7491 17.7775 17.5366 20.3125 17.6558C23.3458 17.7966 26 15.2833 26 12.2391C26 9.21658 23.6167 6.83325 20.5833 6.83325ZM6.5 13.3333H8.47167C8.01667 14.6658 6.73833 15.5866 5.2 15.4891C3.58583 15.3916 2.2425 14.0266 2.16667 12.4016C2.09083 10.5058 3.5425 8.99992 5.41667 8.99992C6.8575 8.99992 8.03833 9.89908 8.47167 11.1666H6.5C5.90417 11.1666 5.41667 11.6541 5.41667 12.2499C5.41667 12.8458 5.90417 13.3333 6.5 13.3333ZM15.275 11.1666H13.7583L12.9675 8.99992H16.25C15.7733 9.62825 15.4267 10.3541 15.275 11.1666ZM20.4533 15.4999C18.785 15.4349 17.3767 14.0158 17.3333 12.3366C17.3117 11.2966 17.7558 10.3866 18.4708 9.77992L19.1425 11.6216C19.3483 12.1849 19.9658 12.4774 20.5292 12.2716C21.0925 12.0658 21.385 11.4483 21.1792 10.8849L20.4967 9.01075L20.5075 8.99992C20.9418 8.98511 21.3747 9.05847 21.7799 9.21559C22.1851 9.3727 22.5543 9.6103 22.8651 9.91404C23.1759 10.2178 23.422 10.5814 23.5884 10.9828C23.7548 11.3843 23.8381 11.8153 23.8333 12.2499C23.8333 14.1133 22.3383 15.5649 20.4533 15.4999Z" fill="url(#paint0_linear_44_183)"/>
<defs>
<linearGradient id="paint0_linear_44_183" x1="13" y1="0.333252" x2="13" y2="17.6666" gradientUnits="userSpaceOnUse">
<stop stop-color="#FFB60D"/>
<stop offset="1" stop-color="#E59317"/>
</linearGradient>
</defs>
</svg>
